<svg xmlns="http://www.w3.org/2000/svg" xmlns:xlink="http://www.w3.org/1999/xlink" version="1.1" id="Sprite" x="0px" y="0px" width="100px" height="100px" xml:space="preserve">
	<style type="text/css">
	svg svg
	{
		display: none
	}
	svg:target
	{
		display: inline
	}

	path
	{
		fill: #5A72A6
	}
	</style>

	<svg xmlns="http://www.w3.org/2000/svg" xmlns:xlink="http://www.w3.org/1999/xlink" version="1.1" id="Pastecode" x="0" y="0px" width="100px" height="100px" viewBox="0 0 100 100" enable-background="new 0 0 100 100" xml:space="preserve">
		<path display="none" d="M69.172,11.265c-0.191-0.192-0.502-0.192-0.695,0L11.639,68.029c-0.192,0.191-0.192,0.501,0,0.692  l19.207,19.184c0.096,0.095,0.222,0.143,0.348,0.143c0.125,0,0.251-0.048,0.347-0.143L88.38,31.14  c0.093-0.092,0.145-0.216,0.145-0.347s-0.052-0.255-0.145-0.347L69.172,11.265z"/>
		<path display="none" d="M96.846,9.12l-6.319-6.311C88.713,0.998,86.301,0,83.735,0c-2.564,0-4.977,0.998-6.79,2.809L70.626,9.12  c-0.093,0.092-0.145,0.216-0.145,0.347c0,0.13,0.052,0.254,0.145,0.346l19.207,19.182c0.092,0.092,0.218,0.144,0.348,0.144  c0.131,0,0.255-0.052,0.346-0.144l6.319-6.311c1.814-1.812,2.813-4.22,2.813-6.783C99.659,13.34,98.66,10.932,96.846,9.12z"/>
		<path display="none" d="M10.358,69.967c-0.122-0.121-0.296-0.172-0.464-0.129c-0.167,0.04-0.3,0.165-0.351,0.33l-9.18,29.195  c-0.055,0.178-0.006,0.369,0.127,0.498C0.584,99.952,0.707,100,0.832,100c0.054,0,0.11-0.011,0.164-0.029l28.387-10.012  c0.159-0.056,0.278-0.188,0.315-0.354c0.037-0.164-0.012-0.337-0.132-0.455L10.358,69.967z"/>
		<path d="M2.343,54.1C0.938,53.162,0,51.289,0,49.648c0-1.64,0.703-3.162,2.46-3.982H2.343c8.317-4.92,19.915-11.48,27.647-16.049  v10.895c-3.046,1.757-7.146,3.749-17.455,9.255l0.117,0.116c5.506,2.461,11.832,6.209,17.338,9.489v11.012L2.343,54.1z"/>
		<path d="M97.657,45.9c1.404,0.938,2.343,2.812,2.343,4.452c0,1.64-0.703,3.162-2.461,3.982h0.118  c-8.317,4.92-19.916,11.48-27.647,16.049V59.488c3.046-1.756,7.146-3.748,17.455-9.254l-0.117-0.116  c-5.505-2.461-11.832-6.209-17.338-9.489V29.617L97.657,45.9z"/>
		<path d="M46.401,71.844H39.39L53.48,28.156h7.13L46.401,71.844z"/>
		<text transform="matrix(1 0 0 1 -2321 -1309)" font-family="'Courier-Bold'" font-size="177.3347">&lt;/&gt;</text>
	</svg>

	<svg xmlns="http://www.w3.org/2000/svg" xmlns:xlink="http://www.w3.org/1999/xlink" version="1.1" id="Upload" x="0" y="0px" width="100px" height="100px" viewBox="0 0 100 100" enable-background="new 0 0 100 100" xml:space="preserve">
		<path id="Arrow" d="M52.669,99.454C51.83,99.815,50.927,100,49.961,100s-1.855-0.185-2.667-0.546  c-0.916-0.467-1.704-1.014-2.363-1.637L22.06,74.449c-0.611-0.623-1.119-1.403-1.524-2.337C20.178,71.229,20,70.281,20,69.268  c0-1.01,0.178-1.946,0.535-2.804c0.354-0.857,0.863-1.623,1.524-2.296c0.762-0.729,1.549-1.275,2.363-1.637  c0.812-0.364,1.701-0.545,2.668-0.545c1.017,0,1.931,0.181,2.744,0.545c0.915,0.416,1.701,0.96,2.364,1.637l10.673,10.825V37.245  c0-0.986,0.176-1.908,0.533-2.766c0.354-0.856,0.864-1.636,1.525-2.336c0.659-0.702,1.447-1.262,2.363-1.676  C48.105,30.157,48.995,30,49.961,30s1.855,0.157,2.67,0.468c0.915,0.414,1.701,0.974,2.363,1.676c0.661,0.7,1.183,1.479,1.562,2.336  c0.383,0.857,0.573,1.779,0.573,2.766v37.748l10.597-10.825c0.66-0.677,1.449-1.221,2.364-1.637  c0.863-0.364,1.779-0.545,2.743-0.545c0.965,0,1.855,0.181,2.669,0.545c0.864,0.361,1.65,0.907,2.365,1.637  c0.657,0.673,1.179,1.438,1.562,2.296C79.808,67.321,80,68.258,80,69.268c0,1.014-0.179,1.961-0.535,2.845  c-0.457,0.934-0.99,1.714-1.598,2.337L54.994,97.817C54.281,98.544,53.508,99.09,52.669,99.454z"/>
		<path id="Cloud" d="M87.016,31.02c-1.181-4.091-4.487-7.272-8.65-8.285c0.049-0.434,0.078-0.875,0.078-1.322  c0-6.603-5.355-11.955-11.96-11.955c-1.373,0-2.686,0.241-3.913,0.668c-3.8-5.655-10.253-9.375-17.58-9.375  c-10.978,0-20.002,8.355-21.063,19.053c-0.036-0.001-0.071-0.005-0.106-0.005c-6.458,0-11.707,5.12-11.937,11.52  c-4.14,1.35-7.134,5.12-7.134,9.709c0,5.711,4.63,10.223,10.344,10.223h23.278V37.245c0-1.584,0.296-3.097,0.88-4.497  c0.559-1.35,1.37-2.597,2.408-3.695c1.056-1.124,2.331-2.03,3.781-2.686l0.245-0.102c2.65-1.015,5.89-1.016,8.549-0.002l0.252,0.105  c1.441,0.652,2.714,1.557,3.78,2.687c1.01,1.068,1.819,2.282,2.404,3.604c0.634,1.419,0.958,2.967,0.958,4.586V51.25h23.278  c5.712,0,10.343-4.512,10.343-10.223C95.25,36.038,91.717,31.994,87.016,31.02z"/>
	</svg>

	<svg xmlns="http://www.w3.org/2000/svg" xmlns:xlink="http://www.w3.org/1999/xlink" version="1.1" id="Url" x="-60px" y="20px" width="70.866px" height="70.866px" viewBox="-59.418 14.567 70.866 70.866" enable-background="new -59.418 14.567 70.866 70.866" xml:space="preserve">
	<g>
		<g>
			<path d="M-28.552,61.485c-0.017,0.016-0.029,0.035-0.046,0.053l-5.825,5.725c-0.952,0.938-2.214,1.445-3.549,1.434    s-2.586-0.543-3.522-1.494c-1.931-1.967-1.903-5.139,0.063-7.072l5.826-5.725c0.017-0.017,0.038-0.028,0.057-0.046l6.925-6.806    c-1.076-0.362-2.211-0.571-3.382-0.582c-2.938-0.026-5.709,1.095-7.804,3.152l-5.827,5.727    c-4.326,4.248-4.388,11.227-0.137,15.555c2.058,2.096,4.813,3.266,7.75,3.291s5.711-1.094,7.806-3.152l5.825-5.727    c2.096-2.059,3.265-4.813,3.292-7.748c0.009-1.172-0.181-2.307-0.523-3.393L-28.552,61.485z"/>
			<path d="M-2.202,28.594c-2.062-2.096-4.813-3.264-7.75-3.29c-2.94-0.026-5.71,1.094-7.807,3.154l-5.825,5.723    c-3.044,2.991-3.966,7.327-2.771,11.145l6.922-6.801c0.02-0.021,0.033-0.045,0.053-0.064l5.826-5.724    c0.954-0.936,2.212-1.445,3.549-1.433c1.335,0.011,2.585,0.543,3.522,1.495c0.936,0.952,1.445,2.212,1.434,3.548    c-0.013,1.335-0.544,2.587-1.495,3.523l-5.826,5.723c-0.016,0.016-0.034,0.025-0.05,0.041l-6.931,6.81    c1.077,0.361,2.21,0.571,3.38,0.582c2.938,0.024,5.71-1.095,7.805-3.154l5.827-5.723c2.095-2.059,3.264-4.812,3.29-7.749    C0.976,33.461-0.144,30.688-2.202,28.594z"/>
		</g>
		<path d="M-13.41,39.604c1.183,1.203,1.001,3.299-0.405,4.68L-29.88,60.069c-1.405,1.381-3.505,1.527-4.688,0.324l0,0   c-1.18-1.203-0.998-3.297,0.408-4.68l16.065-15.784C-16.688,38.548-14.592,38.402-13.41,39.604L-13.41,39.604z"/>
	</g>
	</svg>

	<svg xmlns="http://www.w3.org/2000/svg" xmlns:xlink="http://www.w3.org/1999/xlink" version="1.1" id="Password" x="0" y="0px" width="100px" height="100px" viewBox="0 0 100 100" enable-background="new 0 0 100 100" xml:space="preserve">
		<path d="M74.303,40.779V23.247c0,0-0.424-23.24-24.515-23.24c-24.09,0-24.09,24.511-24.09,24.511v16.238l-10.247,1.961V93.89  l34.313,6.104l34.784-6.101v-51.18L74.303,40.779z M49.788,9.304c16.481,0,16.481,15.213,16.481,15.213v14.746l-16.505-3.114  l-14.768,2.827V24.518C34.997,24.518,33.308,9.304,49.788,9.304z M79.48,89.635l-29.712,5.208L20.525,89.64V46.912l29.243-5.601  l29.712,5.607V89.635z"/>
		<path d="M56.99,81.578l-3.835-15.014c1.62-1.04,2.696-2.854,2.696-4.922c0-3.239-2.619-5.858-5.852-5.858  c-3.236,0-5.857,2.619-5.857,5.858c0,2.026,1.031,3.812,2.598,4.861l-3.73,15.074H56.99z"/>
	</svg>
</svg>